<svg width="228" height="41" viewBox="0 0 228 41" fill="none" xmlns="http://www.w3.org/2000/svg">
<g clip-path="url(#clip0_5_22)">
<path d="M0.00616477 5.60315C-0.048446 8.94349 0.279219 33.3495 0.224608 35.1275C0.224608 36.7976 0.224608 38.4678 0.279219 40.138C0.279219 40.4074 0.443051 40.6767 0.716105 40.6767C4.53886 40.8384 8.307 40.5151 12.1298 40.569C13.3858 40.6229 14.6419 40.569 15.8433 40.569C17.0447 40.5151 17.1539 40.0302 17.0993 39.0604C17.0447 37.5519 17.0447 36.205 17.0447 34.7503C16.9901 33.9961 16.5532 33.7267 15.8979 33.7267C13.6589 33.7805 11.4198 33.6728 9.18078 33.7806C8.7985 33.8344 8.41622 33.8344 8.03395 33.8344C7.37862 33.7806 7.21479 33.6189 7.16018 32.9185L7.16018 32.1104C6.99634 27.6386 7.32401 23.0053 7.32401 18.5335C7.2694 14.7622 7.32401 11.3679 7.2694 8.0276C7.2694 6.57293 7.2694 5.11827 7.21479 3.71748C7.16018 2.85545 7.21479 1.93955 6.99634 1.07753C6.88712 0.754271 6.72329 0.323259 6.34102 0.323259L1.2076 0.323259C0.33383 0.323259 0.0607755 0.9159 0.00616477 1.77792L0.00616477 5.60315ZM20.5344 9.159C20.5344 14.6005 20.589 20.0959 20.6982 25.4836C20.7528 28.77 20.6982 32.4875 22.2819 35.5046C24.3025 39.3837 28.7806 41.1078 33.0948 40.8384C36.0438 40.6229 38.7744 39.8686 40.9042 37.7135C44.5085 33.8883 43.7985 27.908 43.8532 23.0053C43.9624 15.9474 44.1262 9.37451 44.1262 2.26281C44.1262 1.07753 43.7439 0.431011 42.5425 0.377135C41.068 0.323259 39.5935 0.377135 38.119 0.484888C37.5183 0.484888 37.0268 1.02365 37.0268 1.67017C37.0814 6.84231 37.1906 12.0683 37.136 17.2943C37.0814 21.7661 37.6821 26.7227 35.9892 30.979C35.3339 32.5414 33.8594 33.7267 32.1118 33.7267C27.743 33.6189 27.9068 28.5007 27.743 25.4836C27.4153 18.9106 27.9068 12.1761 28.0706 5.60315C28.0706 4.36399 28.0706 3.12484 28.1253 1.88568C28.1799 1.23916 28.2891 0.431011 27.4153 0.377135L26.4323 0.377135C25.0671 0.484888 23.7018 0.323259 22.3365 0.377135C21.0259 0.484888 20.589 0.862023 20.589 2.15506C20.589 4.47175 20.5344 6.84231 20.5344 9.159ZM70.5524 30.8173C70.88 30.1169 71.1531 29.4166 71.4261 28.7162C72.0269 26.9921 72.1361 25.2142 72.2999 23.4363C72.6276 19.6649 72.5184 15.8397 71.5354 12.1761C70.3339 7.48883 67.2757 3.17871 62.6884 1.18528C60.6132 0.269383 58.2649 0.161629 56.0259 0.215506C53.6776 0.215506 51.2748 0.107753 48.9265 0.323259C48.2712 0.377135 47.9435 0.700394 47.8343 1.29304C47.7251 1.93955 47.6158 2.58607 47.6158 3.17871C47.7251 6.46518 47.6158 16.2168 47.7251 17.8331C47.7797 19.2878 47.6158 21.0657 47.6158 22.5204C47.6705 26.1301 47.6158 29.7937 47.6158 33.4034C47.6158 34.912 47.5612 36.3666 47.5612 37.8752C47.5612 39.4915 46.9605 40.1918 51.4386 40.1918C55.4252 40.1918 59.5756 39.8686 63.3437 38.4678C66.8388 37.2286 69.0233 34.0499 70.5524 30.8173ZM54.6606 25.2142L54.6606 18.749C54.6606 14.6544 54.7699 12.0145 54.606 8.56636L54.606 7.91984C54.6606 6.78844 54.8245 6.73456 56.0259 6.73456C57.6096 6.68068 58.7564 7.05782 60.1217 7.59658C61.487 8.13535 62.2515 9.32063 62.9615 10.452C64.3267 12.661 64.8728 15.0854 64.9821 17.6176C65.0367 19.0723 65.0913 20.5269 65.0913 21.9816C65.0913 28.8778 60.9955 33.6728 57.3912 33.6728C54.9883 33.6728 54.606 33.8344 54.606 32.272C54.606 30.6557 54.7152 29.0394 54.7152 27.4231C54.6606 26.7227 54.6606 25.9685 54.6606 25.2142ZM104.679 10.2365C105.825 13.5769 106.099 17.1866 106.099 20.7424C106.099 23.7056 105.552 26.5611 104.788 29.4166C103.805 32.8108 102.167 35.8817 99.2176 37.8752C97.0331 39.4376 94.7395 40.4612 92.0636 40.7306C91.6813 40.7306 91.3536 40.7845 90.9713 40.7845C90.6437 40.7845 90.316 40.7306 89.9337 40.7306C87.2578 40.4612 84.9642 39.4376 82.7251 37.8752C79.8307 35.8817 78.1378 32.8108 77.2094 29.4166C76.3903 26.5611 75.8988 23.7056 75.8988 20.7424C75.8988 17.1866 76.1718 13.5769 77.3186 10.2365C79.3392 4.47175 84.9095 0.377135 90.9713 0.269382C97.0331 0.377135 102.603 4.47175 104.679 10.2365ZM99.3814 24.6754C99.9275 21.389 99.7091 18.0486 99.0537 14.7622C98.3984 11.7989 97.0877 8.88962 94.5756 7.11169C94.1388 6.78844 93.6473 6.51905 93.1558 6.35742C92.4458 6.03416 91.6813 5.92641 90.9713 5.92641C90.2614 5.92641 89.5515 6.03416 88.8415 6.35742C88.2954 6.51905 87.8585 6.78844 87.4216 7.11169C84.8549 8.88962 83.5443 11.7989 82.9436 14.7622C82.2882 18.0486 82.0698 21.389 82.6159 24.6754C83.162 27.6386 84.2542 31.6255 87.094 33.134C88.2954 33.7806 89.6061 34.2116 90.9713 34.2654C92.3366 34.2116 93.7019 33.7806 94.9033 33.134C97.7431 31.6255 98.8353 27.6386 99.3814 24.6754ZM121.493 40.7845C122.312 40.7845 125.316 40.8384 125.917 40.7306C126.299 40.6229 126.517 39.6531 126.627 39.3298C126.954 38.3062 127.173 37.2286 127.446 36.205C128.047 33.5112 134.108 10.883 136.238 2.42444C136.347 2.04731 136.457 1.61629 136.347 1.23916C136.184 0.431012 135.692 0.323259 135.037 0.323259C133.781 0.377135 132.525 0.323259 131.269 0.323259C129.849 0.323259 129.303 0.484888 128.866 2.04731C126.736 9.26675 125.316 17.887 123.35 25.2142L123.022 26.0762C123.022 26.1301 122.804 26.0762 122.804 26.0762C122.695 25.8068 122.531 25.5913 122.476 25.3219C120.51 17.6176 117.288 2.37056 116.742 0.915899C116.414 0.0538756 115.595 0.323259 114.831 0.323259C113.302 0.323259 111.882 0.377135 110.407 0.377135C109.861 0.431011 109.479 0.646518 109.534 1.18528C109.534 1.61629 110.134 3.98686 110.243 4.63338L110.844 6.89619C111.226 8.62024 111.773 10.7753 112.155 12.4455C114.23 21.0118 116.469 29.5782 118.927 38.0368C119.145 38.7911 119.309 40.0841 119.855 40.5151C120.292 40.8922 121.002 40.7306 121.493 40.7845ZM139.892 29.6859L139.837 29.6859C139.837 31.0328 139.782 32.4336 139.837 33.8344C139.892 35.5585 140.001 37.2825 140.11 39.0066C140.11 39.5992 140.274 39.7608 140.82 39.8686C141.967 40.138 143.059 40.1918 144.206 40.1918C147.155 40.0841 150.104 40.2996 153.053 40.1918C154.254 40.138 154.8 40.2457 156.002 40.0302C157.094 39.8147 157.476 39.2221 157.476 37.6058C157.367 36.5821 157.422 36.1511 157.422 34.912C157.422 33.134 156.166 32.5414 155.073 32.5953C154.309 32.6491 150.65 32.5414 149.176 32.5414C146.718 32.5953 147.1 32.9185 147.1 30.3863C147.1 28.339 147.155 25.6991 147.155 23.5979C147.155 22.4665 147.264 22.0894 148.356 22.0894L155.183 22.0894C156.275 22.251 157.039 21.4967 157.039 20.3653C157.039 19.2339 157.149 19.18 157.149 18.0486L156.985 16.4323C156.876 15.5164 156.548 15.1932 155.62 15.1932C155.019 15.1932 154.418 15.247 153.817 15.3009C151.469 15.4625 150.377 15.1393 148.083 15.3009C147.319 15.3009 147.21 15.1932 147.155 14.4928C146.936 12.3916 147.155 10.0749 147.373 7.97372C147.428 7.1117 147.646 6.95007 148.466 6.89619L156.166 6.84231C157.203 6.73456 157.531 6.78844 157.476 5.76478C157.367 4.20236 157.531 2.58607 157.367 1.02365C157.258 0.16163 156.985 9.4221e-09 156.002 9.3631e-09C154.364 0.0538765 153.981 0.0538763 152.343 0.161629C150.705 0.215506 144.151 0.215506 142.568 0.215506C140.274 0.215506 140.11 0.0538764 140.056 2.80158C139.946 4.95664 140.001 7.16557 140.001 9.37451C140.001 13.1459 139.782 26.6689 139.892 29.6859ZM167.683 36.6899C167.683 35.2891 167.683 26.4533 167.738 25.753C167.792 25.5913 167.902 25.2681 168.12 25.2681C168.338 25.2681 168.448 25.3758 168.502 25.5374C170.687 29.7398 172.598 33.9422 174.564 38.0368C174.837 38.6294 175.438 40.3535 175.602 40.5151C175.82 40.8384 176.202 40.7306 176.53 40.7306L182.537 40.7845C183.247 40.7845 183.411 40.3535 183.247 39.7608C182.81 38.1445 179.697 32.4336 178.988 31.0328C178.496 29.9553 175.219 23.7056 175.11 23.2208C175.001 23.0053 175.82 22.6281 175.929 22.4665C178.551 20.1498 180.899 17.7792 181.39 14.1695C181.937 10.6137 181.117 6.73456 178.769 3.87911C176.967 1.77792 174.619 0.538764 171.834 0.377135C170.141 0.269382 168.502 0.431011 166.809 0.377135C165.335 0.323259 164.297 0.323259 162.44 0.323259C161.567 0.323259 161.021 0.808147 160.966 1.72405L160.966 2.37057C160.857 6.51905 160.966 10.6675 161.021 14.7622C161.021 21.0118 160.911 37.498 160.911 39.8686C160.911 40.569 161.021 40.7306 161.676 40.7306C162.058 40.7306 162.495 40.7845 162.877 40.7845C164.406 40.7845 165.335 40.7306 166.919 40.7306C168.12 40.7306 167.683 38.7911 167.683 36.6899ZM167.683 15.6781L167.738 10.2365C167.792 9.42838 167.519 7.81209 168.284 7.21945C169.321 6.46518 171.451 7.21945 172.38 7.86597C175.11 9.69777 174.892 14.2234 173.417 16.7556C172.707 17.9409 171.506 18.6413 170.141 19.0184C169.321 19.2339 167.792 19.5033 167.738 18.2102C167.738 17.3482 167.683 15.6781 167.683 15.6781ZM197.877 0.0538764C196.84 0.107753 195.802 0.269382 194.765 0.592641C192.526 1.34691 190.505 2.85545 189.14 4.79501C187.938 6.57293 187.447 8.67411 187.283 10.7753C187.174 12.3916 187.338 14.0618 188.102 15.5164C188.921 17.0788 190.341 18.4258 191.543 19.7188C192.635 20.8502 193.727 21.9816 194.928 23.0053C196.021 24.0289 197.277 24.8371 198.369 25.9146C199.953 27.477 200.553 31.0329 199.406 32.9724C198.041 35.1275 194.819 35.4507 192.689 34.7503C191.597 34.3732 190.614 33.565 189.686 32.9185C189.14 32.5414 188.484 32.3798 188.102 33.0263C187.884 33.3495 187.774 33.7267 187.665 34.0499C187.283 35.3968 186.791 36.636 186.737 38.0907C186.682 39.7608 189.904 40.2457 191.106 40.5151C196.458 41.7543 202.902 40.7845 205.687 35.5585C206.233 34.4809 206.615 33.3495 206.834 32.1643C206.888 31.7332 206.943 31.3561 206.943 30.9251C207.161 27.477 205.741 24.5677 203.612 21.9816C201.318 19.18 198.423 17.2405 195.748 14.816C194.109 13.3075 193.509 10.9369 194 8.78187C194.492 6.46518 197.167 5.87254 199.188 6.46518C199.789 6.62681 200.28 6.89619 200.826 7.21945C201.154 7.38108 201.482 7.59658 201.919 7.59658C202.683 7.65046 202.792 7.05782 202.956 6.46518C203.338 5.11827 203.994 4.04074 204.267 2.7477C204.54 1.29304 203.338 1.02365 202.137 0.646517C200.717 0.269382 199.352 -3.82114e-08 197.877 0.0538764ZM210.432 29.6859L210.378 29.6859C210.378 31.0328 210.323 32.4336 210.378 33.8344C210.432 35.5585 210.542 37.2825 210.651 39.0066C210.651 39.5992 210.815 39.7608 211.361 39.8686C212.508 40.138 213.6 40.1918 214.747 40.1918C217.696 40.0841 220.645 40.2996 223.594 40.1918C224.795 40.138 225.341 40.2457 226.543 40.0302C227.635 39.8147 228.017 39.2221 228.017 37.6058C227.908 36.5821 227.962 36.1511 227.962 34.912C227.962 33.134 226.706 32.5414 225.614 32.5953C224.85 32.6491 221.191 32.5414 219.716 32.5414C217.259 32.5953 217.641 32.9185 217.641 30.3863C217.641 28.339 217.696 25.6991 217.696 23.5979C217.696 22.4665 217.805 22.0894 218.897 22.0894L225.723 22.0894C226.816 22.251 227.58 21.4967 227.58 20.3653C227.58 19.2339 227.689 19.18 227.689 18.0486L227.526 16.4323C227.416 15.5164 227.089 15.1932 226.16 15.1932C225.56 15.1932 224.959 15.247 224.358 15.3009C222.01 15.4625 220.918 15.1393 218.624 15.3009C217.859 15.3009 217.75 15.1932 217.696 14.4928C217.477 12.3916 217.696 10.0749 217.914 7.97372C217.969 7.1117 218.187 6.95007 219.006 6.89619L226.706 6.84231C227.744 6.73456 228.072 6.78844 228.017 5.76478C227.908 4.20236 228.072 2.58607 227.908 1.02365C227.799 0.16163 227.526 1.36559e-08 226.543 1.35969e-08C224.904 0.0538765 224.522 0.0538763 222.884 0.161629C221.245 0.215506 214.692 0.215506 213.108 0.215506C210.815 0.215506 210.651 0.0538764 210.596 2.80158C210.487 4.95664 210.542 7.16557 210.542 9.37451C210.542 13.1459 210.323 26.6689 210.432 29.6859Z" fill="#F08A5D"/>
</g>
<defs>
<clipPath id="clip0_5_22">
<rect width="228" height="41" fill="white"/>
</clipPath>
</defs>
</svg>
